<svg width="30" height="30" viewBox="0 0 30 30" fill="none" xmlns="http://www.w3.org/2000/svg"><path fill-rule="evenodd" clip-rule="evenodd" d="M1.25 3.547A2.298 2.298 0 013.547 1.25H26.45a2.296 2.296 0 012.3 2.297V26.45a2.298 2.298 0 01-2.299 2.3H3.547a2.298 2.298 0 01-2.297-2.299V3.547zm10.885 8.188h3.724v1.87c.537-1.075 1.912-2.043 3.978-2.043 3.962 0 4.9 2.142 4.9 6.07v7.278H20.73v-6.383c0-2.237-.538-3.5-1.903-3.5-1.893 0-2.681 1.362-2.681 3.5v6.383h-4.01V11.735zM5.26 24.739h4.01V11.562H5.26v13.176zM9.844 7.265a2.579 2.579 0 11-5.156.114 2.579 2.579 0 015.156-.114z" fill="#000"/></svg>